<svg width="40" height="40" xmlns="http://www.w3.org/2000/svg">
 <!-- Created with Method Draw - http://github.com/duopixel/Method-Draw/ -->

 <g>
  <title>background</title>
  <rect fill="#fff" id="canvas_background" height="42" width="42" y="-1" x="-1"/>
  <g display="none" overflow="visible" y="0" x="0" height="100%" width="100%" id="canvasGrid">
   <rect fill="url(#gridpattern)" stroke-width="0" y="1" x="1" height="198" width="325"/>
  </g>
 </g>
 <g>
  <title>Layer 1</title>
  <g stroke="null" id="svg_5">
   <path stroke="null" id="svg_4" fill-rule="evenodd" d="m32.97151,11.588933c0.252553,-0.764974 0,-1.321072 -1.117334,-1.321072l-3.715225,0c-0.937142,0 -1.369887,0.486925 -1.62244,1.007758c0,0 -1.911173,4.448784 -4.580006,7.333034c-0.865491,0.834147 -1.262056,1.112196 -1.730981,1.112196c-0.252553,0 -0.577467,-0.278049 -0.577467,-1.042345l0,-7.125515c0,-0.90332 -0.288024,-1.320394 -1.081863,-1.320394l-5.842771,0c-0.577467,0 -0.937851,0.417074 -0.937851,0.834147c0,0.868734 1.334416,1.07761 1.478428,3.510199l0,5.285644c0,1.146783 -0.212826,1.356337 -0.685298,1.356337c-1.262056,0 -4.327453,-4.483371 -6.166266,-9.592013c-0.357547,-1.011827 -0.720769,-1.394314 -1.65862,-1.394314l-3.750696,0c-1.081863,0 -1.262056,0.486247 -1.262056,1.007758c0,0.938585 1.262056,5.66474 5.878242,11.920165c3.065397,4.272461 7.429031,6.568739 11.359919,6.568739c2.380809,0 2.668832,-0.521511 2.668832,-1.390245l0,-3.23215c0,-1.042345 0.216373,-1.215956 0.974032,-1.215956c0.540577,0 1.514609,0.277371 3.714515,2.328152c2.524111,2.43259 2.956856,3.544786 4.363633,3.544786l3.714515,0c1.081863,0 1.586969,-0.521511 1.298236,-1.52927c-0.324204,-1.007758 -1.550789,-2.467176 -3.137758,-4.204644c-0.865491,-0.972493 -2.163726,-2.050103 -2.560291,-2.571614c-0.540577,-0.695123 -0.396565,-0.973172 0,-1.598443c-0.03618,0 4.508355,-6.186252 4.976571,-8.273654"/>
  </g>
  <rect stroke="#000" id="svg_6" height="27.812118" width="14.365439" y="4.772741" x="-0.853351" stroke-width="0" fill="#fff"/>
  <rect id="svg_7" height="11.47058" width="3.823527" y="199.823387" x="283.646866" stroke-width="0" stroke="#000" fill="#fff"/>
  <rect id="svg_8" height="18.676458" width="3.970586" y="195.117507" x="283.646866" stroke-width="0" stroke="#000" fill="#fff"/>
 </g>
</svg>